<svg width="14.575195" height="12.604980" viewBox="0 0 14.5752 12.605" fill="none" xmlns="http://www.w3.org/2000/svg" xmlns:xlink="http://www.w3.org/1999/xlink">
	<desc>
			Created with Pixso.
	</desc>
	<defs>
		<clipPath id="clip2_6936">
			<rect id="Icons-twitter" width="14.575342" height="12.604972" fill="white" fill-opacity="0"/>
		</clipPath>
	</defs>
	<rect id="Icons-twitter" width="14.575342" height="12.604972" fill="#FFFFFF" fill-opacity="0"/>
	<g clip-path="url(#clip2_6936)">
		<path id="Vector" d="M13.45 2.97C12.99 3.14 12.5 3.26 12 3.31C12.53 3.04 12.92 2.6 13.11 2.1C12.62 2.35 12.07 2.53 11.5 2.63C11.12 2.28 10.61 2.04 10.06 1.96C9.51 1.88 8.94 1.96 8.45 2.19C7.95 2.42 7.56 2.78 7.33 3.22C7.1 3.67 7.04 4.16 7.17 4.63C6.16 4.59 5.17 4.36 4.27 3.97C3.37 3.57 2.58 3.02 1.94 2.34C1.71 2.67 1.59 3.05 1.59 3.44C1.59 4.2 2.04 4.88 2.72 5.27C2.32 5.26 1.93 5.16 1.57 5L1.57 5.02C1.57 5.53 1.78 6.02 2.15 6.41C2.52 6.81 3.04 7.08 3.61 7.18C3.24 7.26 2.84 7.28 2.46 7.21C2.62 7.65 2.94 8.03 3.37 8.31C3.79 8.58 4.31 8.73 4.84 8.74C4.31 9.1 3.71 9.36 3.06 9.52C2.41 9.67 1.74 9.72 1.08 9.65C2.24 10.3 3.59 10.64 4.97 10.64C9.64 10.64 12.2 7.29 12.2 4.39C12.2 4.29 12.19 4.2 12.19 4.1C12.68 3.79 13.11 3.41 13.46 2.97L13.45 2.97Z" fill="#2B2B2B" fill-opacity="1.000000" fill-rule="nonzero"/>
	</g>
</svg>
