<svg width="14.575195" height="12.604980" viewBox="0 0 14.5752 12.605" fill="none" xmlns="http://www.w3.org/2000/svg" xmlns:xlink="http://www.w3.org/1999/xlink">
	<desc>
			Created with Pixso.
	</desc>
	<defs>
		<clipPath id="clip2_6946">
			<rect id="Icons-instagram" width="14.575342" height="12.604972" fill="white" fill-opacity="0"/>
		</clipPath>
	</defs>
	<rect id="Icons-instagram" width="14.575342" height="12.604972" fill="#FFFFFF" fill-opacity="0"/>
	<g clip-path="url(#clip2_6946)">
		<path id="Vector" d="M7.28 1.05C8.93 1.05 9.14 1.05 9.79 1.08C10.43 1.1 10.87 1.19 11.26 1.32C11.66 1.45 12 1.64 12.34 1.93C12.65 2.19 12.88 2.51 13.04 2.86C13.19 3.19 13.29 3.57 13.32 4.13C13.35 4.69 13.36 4.87 13.36 6.3C13.36 7.72 13.35 7.9 13.32 8.46C13.29 9.02 13.19 9.4 13.04 9.74C12.89 10.09 12.65 10.41 12.34 10.67C12.03 10.94 11.67 11.14 11.26 11.27C10.87 11.4 10.43 11.49 9.79 11.52C9.14 11.54 8.93 11.55 7.28 11.55C5.63 11.55 5.43 11.54 4.78 11.52C4.13 11.49 3.69 11.4 3.31 11.27C2.9 11.14 2.53 10.94 2.23 10.67C1.92 10.41 1.68 10.09 1.53 9.74C1.38 9.4 1.28 9.02 1.25 8.46C1.22 7.9 1.21 7.72 1.21 6.3C1.21 4.87 1.22 4.69 1.25 4.13C1.28 3.57 1.38 3.19 1.53 2.86C1.68 2.51 1.92 2.19 2.23 1.93C2.53 1.66 2.9 1.45 3.31 1.32C3.69 1.19 4.13 1.1 4.78 1.08C5.43 1.05 5.63 1.05 7.28 1.05ZM7.28 3.67C6.48 3.67 5.71 3.95 5.14 4.44C4.57 4.93 4.25 5.6 4.25 6.3C4.25 6.99 4.57 7.66 5.14 8.15C5.71 8.65 6.48 8.92 7.28 8.92C8.09 8.92 8.86 8.65 9.43 8.15C10 7.66 10.32 6.99 10.32 6.3C10.32 5.6 10 4.93 9.43 4.44C8.86 3.95 8.09 3.67 7.28 3.67ZM11.23 3.54C11.23 3.37 11.15 3.2 11.01 3.08C10.87 2.95 10.67 2.88 10.47 2.88C10.27 2.88 10.08 2.95 9.93 3.08C9.79 3.2 9.71 3.37 9.71 3.54C9.71 3.71 9.79 3.88 9.93 4C10.08 4.13 10.27 4.2 10.47 4.2C10.67 4.2 10.87 4.13 11.01 4C11.15 3.88 11.23 3.71 11.23 3.54ZM7.28 4.72C7.77 4.72 8.23 4.89 8.57 5.18C8.91 5.48 9.1 5.88 9.1 6.3C9.1 6.72 8.91 7.12 8.57 7.41C8.23 7.71 7.77 7.87 7.28 7.87C6.8 7.87 6.34 7.71 5.99 7.41C5.65 7.12 5.46 6.72 5.46 6.3C5.46 5.88 5.65 5.48 5.99 5.18C6.34 4.89 6.8 4.72 7.28 4.72Z" fill="#2B2B2B" fill-opacity="1.000000" fill-rule="nonzero"/>
	</g>
</svg>
