<svg width="14.575195" height="12.604980" viewBox="0 0 14.5752 12.605" fill="none" xmlns="http://www.w3.org/2000/svg" xmlns:xlink="http://www.w3.org/1999/xlink">
	<desc>
			Created with Pixso.
	</desc>
	<defs>
		<clipPath id="clip2_6916">
			<rect id="Icons-Youtube" width="14.575342" height="12.604972" fill="white" fill-opacity="0"/>
		</clipPath>
	</defs>
	<rect id="Icons-Youtube" width="14.575342" height="12.604972" fill="#FFFFFF" fill-opacity="0"/>
	<g clip-path="url(#clip2_6916)">
		<path id="Vector" d="M13.08 3.41C13.36 4.34 13.36 6.3 13.36 6.3C13.36 6.3 13.36 8.25 13.08 9.19C12.92 9.7 12.47 10.11 11.9 10.25C10.86 10.5 7.28 10.5 7.28 10.5C7.28 10.5 3.7 10.5 2.66 10.25C2.09 10.11 1.64 9.7 1.49 9.19C1.21 8.25 1.21 6.3 1.21 6.3C1.21 6.3 1.21 4.34 1.49 3.41C1.64 2.89 2.09 2.48 2.66 2.35C3.7 2.1 7.28 2.1 7.28 2.1C7.28 2.1 10.86 2.1 11.9 2.35C12.48 2.49 12.93 2.89 13.08 3.41ZM6.07 8.14L9.71 6.3L6.07 4.46L6.07 8.14Z" fill="#2B2B2B" fill-opacity="1.000000" fill-rule="nonzero"/>
	</g>
</svg>
